PathFileType	4	(X/Y/Z)	Patient4_TMGait_0pt6_01_right_28.trc.trc
DataRate	CameraRate	NumFrames	NumMarkers	Units	OrigDataRate	OrigDataStartFrame	OrigNumFrames
82.352941176470	82.352941176470	5	33	mm	82.352941176470	89	       141
Frame#	Time	Sacral			L.Shoulder			Chest			R.Shoulder			Neck			R.ASIS			L.ASIS			R.Thigh.Superior			R.Thigh.Lateral			R.Thigh.Inferior			R.Patella			L.Thigh.Superior			L.Thigh.Lateral			L.Thigh.Inferior			L.Patella			L.Shank.Superior			L.Shank.Lateral			L.Shank.Inferior			R.Shank.Superior			R.Shank.Lateral			R.Shank.Inferior			R.Heel			R.Midfoot.Superior			R.Midfoot.Lateral			R.Toe			L.Heel			L.Midfoot.Lateral			L.Midfoot.Superior			L.Toe			L.Elbow			L.Wrist			R.Elbow			R.Wrist			
		X1	Y1	Z1	X2	Y2	Z2	X3	Y3	Z3	X4	Y4	Z4	X5	Y5	Z5	X6	Y6	Z6	X7	Y7	Z7	X8	Y8	Z8	X9	Y9	Z9	X10	Y10	Z10	X11	Y11	Z11	X12	Y12	Z12	X13	Y13	Z13	X14	Y14	Z14	X15	Y15	Z15	X16	Y16	Z16	X17	Y17	Z17	X18	Y18	Z18	X19	Y19	Z19	X20	Y20	Z20	X21	Y21	Z21	X22	Y22	Z22	X23	Y23	Z23	X24	Y24	Z24	X25	Y25	Z25	X26	Y26	Z26	X27	Y27	Z27	X28	Y28	Z28	X29	Y29	Z29	X30	Y30	Z30	X31	Y31	Z31	X32	Y32	Z32	X33	Y33	Z33	

89	34.538571428571	766.687242652195	1005.302443982173	460.984711060518	898.331273227369	1442.380416390159	288.503984020272	1024.021363359782	1371.780161268184	431.826921421732	959.621410828330	1431.942909567138	617.561010912005	896.051323606823	1494.498850323261	446.524955899008	1000.413978139692	936.070782998274	556.404364324373	966.976160424407	966.721794485356	286.228520681511	1028.696608388749	729.490055732215	538.069366074157	945.503985336684	625.242980888322	605.621496511104	1020.885757159179	561.316080395531	529.453136317308	1006.295467382227	452.339538032611	549.773268280426	1033.458325831866	760.461381823849	316.000941125675	951.994208563691	635.757568100106	264.991926298663	1045.668034673806	566.224246709988	325.049788302067	1052.755916964641	496.293436617724	337.061776794796	1028.890330467086	422.151908255943	333.313345906935	943.536879271703	302.919718589160	289.243957167420	999.936200630389	196.127325438809	361.518170897657	924.967504405966	389.705332856101	559.105736490744	805.177369179229	357.375080409749	625.606638815482	781.696849092631	249.646678499353	576.119438072022	575.189528836906	197.911125903031	558.872434661671	741.377781183718	128.902003836228	586.794413018502	632.635584505354	128.082023528373	622.834113943040	802.290140013513	29.257525871696	597.865362181583	875.994071537829	39.084726347844	409.116088230280	948.465307386311	36.418454968204	327.154792288688	1032.651525241285	96.995351727722	352.107689438125	1160.500383722140	41.799243904701	321.308240888716	831.694838334231	1091.144586098839	178.741776234940	892.125662755186	837.285759991428	171.324616344397	1053.846049311526	1088.890516427606	712.513737365106	1300.691869383293	1021.424452804222	684.881214213042	
90	34.550714285714	766.210617291610	1005.345826591224	458.709795442109	899.229811403679	1442.616005562762	286.569783667489	1023.924765171846	1371.979261221083	430.750718726712	958.308348013722	1431.933838218571	616.193205894225	895.883052376346	1494.774521050493	444.728550671467	999.675257100231	936.575408977984	554.878840032910	967.164676933957	966.753163102792	284.794470124728	1032.953027908305	731.737234362583	535.452854090196	953.597383505045	625.757976700342	603.394603913482	1029.678413650817	563.394977092861	526.084489623873	1017.050450161442	453.175476273348	546.760563334086	1032.220470209337	759.397467093213	314.122457016605	949.291816066710	635.618661255974	263.432706329596	1042.128156615777	565.291591209733	323.596560931457	1048.459794995954	495.450443758630	335.804854883339	1024.227826819798	421.382783435803	332.212730037126	938.099987389795	302.641587355132	288.344129526610	993.598018817320	195.651226530933	361.044076097970	934.295120640149	391.153897183975	556.938656705244	814.108402283867	362.375928043675	624.533122298060	787.419798805312	255.146290718244	575.792557580518	580.325325662078	211.778175520254	560.535411081026	743.176185769340	134.359172098574	586.936610199160	634.865695907074	139.054657210502	624.045690402371	798.707395431193	28.690232901418	597.894152952581	868.645656893362	39.036404547634	408.990135945092	941.101348592047	36.319844687756	327.007633036016	1025.334318750488	96.835820882709	352.004386190584	1153.190085676501	41.596669625748	321.228721081516	839.840653427079	1090.816746220381	173.253846437611	911.627235137386	839.728525031819	164.251406621860	1044.755067892032	1086.097060433480	710.831989766762	1287.421765914906	1002.655012214991	685.570886936772	
91	34.562857142857	765.557246354305	1005.426641186113	456.631402383717	899.984782754851	1442.777437544007	284.718239817833	1023.711984959173	1372.136188987439	429.729340298382	956.969455272196	1431.972594294988	614.880560428304	895.699918499591	1495.056752332456	442.958152090717	998.732993864869	937.095661132688	553.601556322869	967.155835597628	966.820663743229	283.537569780566	1036.987786584944	734.301799465720	532.682113443492	961.802165478409	626.610506388036	601.211284612969	1038.428654136540	565.932408424921	522.622353849325	1028.030342936101	454.533301601963	543.602861428889	1030.812227258087	758.427215564817	312.505583262519	946.472547185295	635.551940743083	262.047665874089	1038.428071897548	564.417922925337	322.363952816407	1044.007616524898	494.651894911893	334.744306097921	1019.422730970977	420.679404206362	331.260106417681	932.575222746000	302.417551034615	287.541637729228	987.201648317553	195.220483957013	360.623149574558	944.004917725336	392.944062416709	554.621428275142	823.528092622549	367.382796158215	623.224777561259	793.943066089225	260.679608384041	575.156610992057	586.565851789701	224.756818848299	561.678808391893	746.252139152834	140.076663640224	586.779730233972	638.479571574602	149.636960128041	624.858092342700	796.820503867962	28.697702027214	597.741362103696	861.311822809492	39.004743416819	408.856006206854	933.756357536320	36.245377420567	326.859227483554	1018.027267284499	96.708931855748	351.890013581525	1145.884232920234	41.438435237712	321.133643956967	848.397988866723	1090.593608298461	167.787042905227	931.352245670851	842.801423858276	157.325766616940	1035.432097400725	1083.579151231723	709.280646142711	1272.541012366424	983.852282382516	686.161191612136	
92	34.575000000000	764.748066105423	1005.583586148153	454.733587581255	900.610469525366	1442.914660201383	282.958808606833	1023.396536248627	1372.290733888282	428.765081347223	955.611806586307	1432.092106470275	613.620812651598	895.516340845407	1495.379537660734	441.219661109901	997.599356199072	937.670485143135	552.570703276868	966.980535229201	966.956520852920	282.442369578629	1040.750991486721	737.216757206056	529.862723845147	969.958839976074	627.871839032124	599.165557315078	1047.044215695661	568.967043741776	519.254514533503	1039.118146581595	456.481033061138	540.498504149282	1029.222535999904	757.545597291881	311.122512180996	943.486567999316	635.557327266387	260.851364937109	1034.524943629270	563.600444129554	321.349022017445	1039.354072524596	493.904516921214	333.895003287825	1014.437803477719	420.054483567628	330.468664978379	926.933182441482	302.251674860026	286.848626192532	980.731534544622	194.844362730594	360.265903634249	954.019425269266	395.113918224683	552.294020342225	833.306578462604	372.308143640359	621.717601473952	801.287783176956	266.092510013535	574.245905082968	593.843271547413	236.357217299838	562.201298999387	750.770500982574	145.813244868925	586.315599886143	643.539480279396	159.374255616937	625.174480995053	797.046629982509	29.376227936065	597.359246595371	853.986370057838	38.990297543275	408.718120859454	926.425293198752	36.193503005335	326.714414033663	1010.726463969091	96.614286160829	351.768339023074	1138.578023730474	41.318188409403	321.026939494852	857.327629211160	1090.550293737108	162.412120747280	951.182918957115	846.552310232334	150.609259519342	1025.921503812481	1081.395254711568	707.868224202010	1256.003215628080	965.237040747587	686.646314892968	
93	34.587142857143	763.805686216994	1005.843310708066	453.000020876115	901.137044893022	1443.071237636793	281.296398121809	1022.998133898425	1372.472985684437	427.864510415268	954.238141064052	1432.312682685269	612.412425674008	895.345136795890	1495.768208336790	439.520226079830	996.288724421902	938.331388302722	551.769536613168	966.673883875179	967.175899675774	281.486959696024	1044.212220681029	740.494427147024	527.121982102752	977.912545602679	629.585092668891	597.347206746706	1055.445007034090	572.515396521934	516.162691534202	1050.195301667122	459.064720287654	537.630610063919	1027.432749634242	756.737453430061	309.960963335286	940.298501743211	635.632713294045	259.848367035364	1030.382571819727	562.836396360747	320.550694607926	1034.456463314305	493.211827717877	333.261927703113	1009.239583060180	419.515990276341	329.842430917817	921.146584678563	302.143778112762	286.270305783419	974.175093519579	194.528721953430	359.976551943082	964.262931995849	397.680854561863	550.089396384098	843.325993470490	377.041642891539	620.061601552622	809.472862917146	271.210277410963	573.107284791039	602.091720530119	246.130257787345	562.044637844949	756.865749445467	151.293328029079	585.546100819935	650.088153720943	167.833098244263	624.936989651658	799.757500784304	30.718618853860	596.727267154185	846.662633392422	38.992561109197	408.580627137047	919.102650535504	36.161090666223	326.577163752839	1003.428081548402	96.549018154348	351.643157119202	1131.267291766250	41.227753465089	320.913594137294	866.559774965831	1090.752565942639	157.200458969966	970.997225650350	851.015117569113	144.157130634395	1016.268630067086	1079.585581463301	706.596574969421	1237.804592478983	947.037898399978	687.036631998269	
